<svg version="1.1" xmlns="http://www.w3.org/2000/svg" xmlns:xlink="http://www.w3.org/1999/xlink">
  <g id="icon-info" viewBox="0 0 100 100">
    <path d="M 50,1.5 C 23.255646,1.5 1.5,23.255646 1.5,50 1.5,76.744354 23.255646,98.5 50,98.5 76.744354,98.5 98.5,76.744354 98.5,50 98.5,23.255646 76.744354,1.5 50,1.5 Z m 0,7 C 72.961273,8.5 91.5,27.038727 91.5,50 91.5,72.961273 72.961273,91.5 50,91.5 27.038727,91.5 8.5,72.961273 8.5,50 8.5,27.038727 27.038727,8.5 50,8.5 Z"/>
    <path shape-rendering="crispEdges" d="M 55,40 V 80 H 45 V 40 z m 0,-20 V 35 H 45 V 20 Z"/>
  </g>
</svg>